<svg width="80" height="80" viewBox="0 0 80 80" fill="none" xmlns="http://www.w3.org/2000/svg">
<rect width="80" height="80" rx="40" fill="#ECF0F3"/>
<path d="M40 80C34.3333 80 29.0667 78.9833 24.2 76.95C19.3333 74.9167 15.1 72.1 11.5 68.5C7.9 64.9 5.08333 60.6667 3.05 55.8C1.01667 50.9333 0 45.6667 0 40C0 34.4 1.01667 29.1667 3.05 24.3C5.08333 19.4333 7.9 15.2 11.5 11.6C15.1 8 19.3333 5.16667 24.2 3.1C29.0667 1.03333 34.3333 0 40 0C45.6 0 50.8333 1.03333 55.7 3.1C60.5667 5.16667 64.8 8 68.4 11.6C72 15.2 74.8333 19.4333 76.9 24.3C78.9667 29.1667 80 34.4 80 40C80 45.6667 78.9667 50.9333 76.9 55.8C74.8333 60.6667 72 64.9 68.4 68.5C64.8 72.1 60.5667 74.9167 55.7 76.95C50.8333 78.9833 45.6 80 40 80ZM37.3 60H43.3V43.4H60V37.4H43.3V20H37.3V37.4H20V43.4H37.3V60Z" fill="#024CC3"/>
</svg>
