<svg width="60" height="60" viewBox="0 0 60 60" fill="none" xmlns="http://www.w3.org/2000/svg">
<path d="M39.42 32.13L25.5 40.14C25.1942 40.308 24.8502 40.3942 24.5013 40.3902C24.1525 40.3862 23.8105 40.2921 23.5087 40.117C23.2069 39.9419 22.9554 39.6919 22.7787 39.3911C22.602 39.0902 22.506 38.7488 22.5 38.4V22.365C22.506 22.0161 22.602 21.6747 22.7787 21.3739C22.9554 21.0731 23.2069 20.823 23.5087 20.6479C23.8105 20.4729 24.1525 20.3788 24.5013 20.3748C24.8502 20.3707 25.1942 20.4569 25.5 20.625L39.39 28.62C39.7 28.7949 39.9584 29.0484 40.1392 29.355C40.32 29.6616 40.4168 30.0104 40.4198 30.3663C40.4229 30.7222 40.332 31.0726 40.1565 31.3823C39.981 31.6919 39.727 31.9498 39.42 32.13Z" stroke="#024CC3" stroke-width="3" stroke-miterlimit="10"/>
</svg>
