<svg width="60" height="60" viewBox="0 0 60 60" fill="none" xmlns="http://www.w3.org/2000/svg">
<path d="M27.0749 46.3877C23.6115 45.7325 20.7332 44.032 18.4399 41.2863C16.1466 38.5406 15 35.3581 15 31.7388C15 29.5235 15.468 27.433 16.4041 25.4673C17.3401 23.5016 18.6661 21.8324 20.3822 20.4595C20.6318 20.2723 20.9282 20.1865 21.2715 20.2021C21.6147 20.2177 21.9111 20.3503 22.1607 20.5999C22.4727 20.9119 22.6131 21.2707 22.5819 21.6764C22.5507 22.082 22.3479 22.4408 21.9735 22.7528C20.663 23.8448 19.6412 25.1787 18.908 26.7544C18.1747 28.33 17.8081 29.9915 17.8081 31.7388C17.8081 34.6717 18.7129 37.2224 20.5226 39.3909C22.3323 41.5593 24.6256 42.9556 27.4025 43.5796C27.7457 43.642 28.0343 43.8136 28.2683 44.0944C28.5023 44.3753 28.6193 44.6873 28.6193 45.0305C28.6193 45.4673 28.4633 45.8183 28.1513 46.0835C27.8393 46.3487 27.4805 46.4501 27.0749 46.3877ZM32.9719 46.3877C32.5663 46.4501 32.2075 46.3487 31.8955 46.0835C31.5835 45.8183 31.4275 45.4673 31.4275 45.0305C31.4275 44.6873 31.5445 44.3753 31.7785 44.0944C32.0125 43.8136 32.3011 43.642 32.6443 43.5796C35.4524 42.9556 37.7457 41.5593 39.5242 39.3909C41.3027 37.2224 42.1919 34.6717 42.1919 31.7388C42.1919 28.3378 41.014 25.4595 38.6583 23.1038C36.3027 20.7481 33.4243 19.5703 30.0234 19.5703H29.0874L30.9126 21.3955C31.1622 21.6452 31.2871 21.9728 31.2871 22.3784C31.2871 22.784 31.1622 23.1116 30.9126 23.3612C30.6318 23.642 30.2886 23.7824 29.883 23.7824C29.4774 23.7824 29.1498 23.642 28.9002 23.3612L24.6412 19.1491C24.4852 18.993 24.376 18.837 24.3136 18.681C24.2512 18.525 24.22 18.3534 24.22 18.1662C24.22 17.979 24.2512 17.8074 24.3136 17.6514C24.376 17.4954 24.4852 17.3394 24.6412 17.1834L28.9002 12.9244C29.1498 12.6748 29.4774 12.55 29.883 12.55C30.2886 12.55 30.6318 12.6748 30.9126 12.9244C31.1622 13.2052 31.2871 13.5484 31.2871 13.954C31.2871 14.3597 31.1622 14.6873 30.9126 14.9369L29.0874 16.7622H30.0234C34.2044 16.7622 37.7457 18.2208 40.6474 21.1381C43.5491 24.0554 45 27.589 45 31.7388C45 35.3581 43.8612 38.5406 41.5835 41.2863C39.3058 44.032 36.4353 45.7325 32.9719 46.3877Z" fill="#024CC3"/>
</svg>
